<?xml version="1.0" encoding="UTF-8" standalone="no"?>
<!-- Generator: Adobe Illustrator 22.1.0, SVG Export Plug-In . SVG Version: 6.00 Build 0)  -->

<svg
   xmlns:dc="http://purl.org/dc/elements/1.1/"
   xmlns:cc="http://creativecommons.org/ns#"
   xmlns:rdf="http://www.w3.org/1999/02/22-rdf-syntax-ns#"
   xmlns:svg="http://www.w3.org/2000/svg"
   xmlns="http://www.w3.org/2000/svg"
   xmlns:sodipodi="http://sodipodi.sourceforge.net/DTD/sodipodi-0.dtd"
   xmlns:inkscape="http://www.inkscape.org/namespaces/inkscape"
   version="1.1"
   id="Layer_1"
   x="0px"
   y="0px"
   viewBox="0 0 768 960"
   xml:space="preserve"
   width="8in"
   height="10in"
   inkscape:version="0.92.2 5c3e80d, 2017-08-06">

   <metadata
     id="metadata957"><rdf:RDF><cc:Work
         rdf:about=""><dc:format>image/svg+xml</dc:format><dc:type
           rdf:resource="http://purl.org/dc/dcmitype/StillImage" /><dc:title></dc:title></cc:Work></rdf:RDF></metadata><defs
     id="defs955" /><style
     type="text/css"
     id="style906">
	.st0{fill:none;stroke:#000000;stroke-width:0.7261;stroke-miterlimit:10;}
</style><g
     id="g924"
     transform="matrix(1.4270456,0,0,1.4270456,-19.218074,-32.287217)"><path
       style="fill:#ffffff;stroke:#000000;stroke-width:1.03617787;stroke-miterlimit:10"
       d="M 485.57617,87.083984 C 475.43229,66.602159 410.75102,61.683875 385.34961,62.46875 c -49.80389,1.56975 -95.99288,11.952833 -133.23877,37.78236 -19.58493,-28.815423 -63.16785,-36.499761 -87.59938,1.60288 -22.71315,35.42272 10.13587,70.91688 28.07838,77.5464 -0.14879,0.38938 0.14466,-0.38981 0,0 -26.06308,82.28834 -12.50341,172.2336 3.96094,251.67383 39.10105,187.08568 127.29217,356.76083 185.51563,357.75976 58.36616,0.99894 175.52719,-288.35571 184.51757,-415.93359 3.96255,-70.62718 6.74287,-157.6775 -12.70507,-205.79492 21.7084,-19.65874 26.88271,-54.78585 10.94728,-78.403576 -23.51266,-34.847845 -69.09738,-6.583923 -79.25002,-1.61791 z"
       transform="matrix(0.70074846,0,0,0.70074846,13.467036,22.625217)"
       id="path912"
       inkscape:connector-curvature="0"
       sodipodi:nodetypes="cccsccccccsc" /><path
       style="fill:none;stroke:#000000;stroke-width:0.72610003;stroke-miterlimit:10"
       inkscape:connector-curvature="0"
       class="st0"
       d="m 310.7,178.4 c 4,6 -30.9,59.5 -37.6,59.4 -6.7,-0.1 -40.6,-49.4 -31.5,-56.9 9.2,-7.5 65.1,-8.5 69.1,-2.5 z"
       id="path908" /><path
       style="fill:none;stroke:#000000;stroke-width:0.72610003;stroke-miterlimit:10"
       inkscape:connector-curvature="0"
       class="st0"
       d="m 226.4,162.5 c 7.4,-6.2 90.1,-1 96.8,1.7 6.7,2.7 42.2,114.6 33.3,133.9 -8.9,19.3 -61,40.6 -90.7,38.3 -29.7,-2.2 -66.6,-30.9 -64.4,-57.2 2.2,-26.2 18.1,-110.9 25,-116.7 z"
       id="path910" /><line
       style="fill:none;stroke:#000000;stroke-width:0.72610003;stroke-miterlimit:10"
       class="st0"
       x1="184.8"
       y1="142.89999"
       x2="218.89999"
       y2="137.89999"
       id="line914" /><line
       style="fill:none;stroke:#000000;stroke-width:0.72610003;stroke-miterlimit:10"
       class="st0"
       x1="326.39999"
       y1="139.8"
       x2="360.10001"
       y2="151.7"
       id="line916" /><path
       style="fill:none;stroke:#000000;stroke-width:0.72610003;stroke-miterlimit:10"
       inkscape:connector-curvature="0"
       class="st0"
       d="m 225.7,278.8 c 14.8,0.3 34.1,13.3 56.2,11.2 22.1,-2.2 40.2,-14.6 40.2,-14.6"
       id="path918" /></g><g
     id="g950"
     transform="matrix(1.4270456,0,0,1.4270456,-19.218074,-32.287217)"><g
       id="g928"
       transform="translate(-42.044907,-28.029938)"><path
         style="fill:none;stroke:#000000;stroke-width:0.72610003;stroke-miterlimit:10"
         inkscape:connector-curvature="0"
         class="st0"
         d="m 198.7,663.4 c 5.8,0 14.1,0 14.1,-5.8 0,-5.8 -8.3,-5.8 -14.1,-5.8 H 166.6 V 675 h 32.1 c 5.8,0 14.1,0 14.1,-5.8 0,-5.8 -8.3,-5.8 -14.1,-5.8 h -32.1"
         id="path926" /></g><g
       id="g936"
       transform="translate(28.029938,-28.029938)"><path
         style="fill:none;stroke:#000000;stroke-width:0.72610003;stroke-miterlimit:10"
         inkscape:connector-curvature="0"
         class="st0"
         d="m 343.51497,668.1 c 0,0 34.2,-3.7 38.8,-4.9 4.6,-1.2 7.4,-2.5 7.4,-5.5 0,-5.8 -8.3,-5.8 -14.1,-5.8 h -32.1 V 675"
         id="path930" /><line
         style="fill:none;stroke:#000000;stroke-width:0.72610003;stroke-miterlimit:10"
         class="st0"
         x1="382.31497"
         y1="663.20001"
         x2="389.715"
         y2="675"
         id="line934" /></g><g
       id="g942"
       transform="translate(14.014969,-28.029938)"><polyline
         style="fill:none;stroke:#000000;stroke-width:0.72610003;stroke-miterlimit:10"
         class="st0"
         points="275.2,675 298.3,651.9 321.4,675   "
         id="polyline938" /><line
         style="fill:none;stroke:#000000;stroke-width:0.72610003;stroke-miterlimit:10"
         class="st0"
         x1="316.5"
         y1="670.09998"
         x2="280.10001"
         y2="670.09998"
         id="line940" /></g><g
       id="g948"
       transform="translate(-14.014969,-28.029938)"><line
         style="fill:none;stroke:#000000;stroke-width:0.72610003;stroke-miterlimit:10"
         class="st0"
         x1="220.89999"
         y1="668.09998"
         x2="267.10001"
         y2="668.09998"
         id="line944" /><polyline
         style="fill:none;stroke:#000000;stroke-width:0.72610003;stroke-miterlimit:10"
         class="st0"
         points="267.1,651.9 220.9,651.9 220.9,675 267.1,675   "
         id="polyline946" /></g></g>
         </svg>